<?xml version="1.0" standalone="no"?><!DOCTYPE svg PUBLIC "-//W3C//DTD SVG 1.1//EN" "http://www.w3.org/Graphics/SVG/1.1/DTD/svg11.dtd"><svg width="64" height="64" viewBox="0 0 64 64" version="1.1" xmlns="http://www.w3.org/2000/svg" xmlns:xlink="http://www.w3.org/1999/xlink"><defs><style type="text/css"><![CDATA[
@font-face { font-family: ifont; src: url("//at.alicdn.com/t/font_1442373896_4754455.eot?#iefix") format("embedded-opentype"), url("//at.alicdn.com/t/font_1442373896_4754455.woff") format("woff"), url("//at.alicdn.com/t/font_1442373896_4754455.ttf") format("truetype"), url("//at.alicdn.com/t/font_1442373896_4754455.svg#ifont") format("svg"); }

]]></style></defs><g class="transform-group"><g transform="scale(0.0625, 0.0625)"><path d="M285.686 405.18c0-33.72 27.342-61.06 61.062-61.06s61.06 27.34 61.06 61.06c0 33.724-27.34 61.06-61.06 61.06S285.686 438.904 285.686 405.18zM595.392 407.134l-101.216 143.812-55.008-56.7-155.208 176.348 485.156 0L595.392 407.134zM844 281l0 462L180 743l0-462L844 281M924 201 100 201l0 622 824 0L924 201 924 201z" fill="#ffffff"></path></g></g></svg>